<svg width="1920" height="1081" viewBox="0 0 1920 1081" fill="none" xmlns="http://www.w3.org/2000/svg">
<rect y="0.142578" width="1920" height="1080" fill="#0C4D35"/>
<g clip-path="url(#clip0_474_9045)">
<path d="M730.556 518.417C728.625 515.279 726.332 512.382 723.676 509.727C721.021 507.072 718.004 504.778 714.865 502.968C711.607 501.037 708.227 499.588 704.486 498.623C700.865 497.536 697.002 497.054 693.14 497.054C688.916 497.054 684.812 497.657 680.95 498.743C677.088 499.83 673.467 501.399 670.208 503.451C666.949 505.502 663.932 507.916 661.276 510.692C658.621 513.589 656.328 516.607 654.517 519.986C652.707 523.366 651.259 526.986 650.172 530.849C649.207 534.711 648.603 538.694 648.603 542.918C648.603 549.557 649.931 555.712 652.465 561.264C655 566.937 658.38 571.765 662.725 575.989C667.07 580.093 672.018 583.352 677.812 585.766C683.605 588.059 689.64 589.266 696.037 589.266C701.83 589.266 707.262 588.179 712.452 586.007C717.642 583.834 722.228 580.938 726.452 577.075C727.177 576.593 727.78 575.989 728.263 575.265C728.746 574.541 728.987 573.817 728.987 572.851C728.987 572.368 728.866 571.885 728.746 571.282C728.625 570.799 728.263 570.196 727.78 569.592L720.297 561.143C719.452 560.299 718.728 559.695 718.124 559.333C717.521 558.971 716.917 558.73 716.193 558.73C715.59 558.73 714.986 558.85 714.503 559.212C713.9 559.574 713.296 559.937 712.572 560.54C711.727 561.385 710.641 562.23 709.193 562.954C707.744 563.678 706.296 564.402 704.606 565.006C702.917 565.609 701.227 566.092 699.416 566.454C697.606 566.816 695.916 566.937 694.226 566.937C692.295 566.937 690.364 566.695 688.192 566.213C686.019 565.73 684.088 564.885 682.157 563.678C680.226 562.471 678.657 560.902 677.208 558.85C675.76 556.798 674.794 554.264 674.312 551.246H725.125C728.142 551.246 730.315 551.126 731.884 550.764C733.453 550.401 734.539 549.798 735.142 548.832C735.746 547.867 736.108 546.66 736.229 545.091C736.349 543.522 736.349 541.591 736.349 539.056C736.349 535.314 735.867 531.694 734.78 528.073C733.936 524.935 732.487 521.555 730.556 518.417ZM675.518 531.573C676.243 530.004 677.208 528.435 678.415 526.866C679.622 525.297 680.95 523.969 682.519 522.762C683.967 521.555 685.657 520.59 687.347 519.865C689.036 519.141 690.847 518.779 692.657 518.779C695.192 518.779 697.365 519.141 699.296 519.745C701.227 520.348 702.917 521.314 704.365 522.521C705.813 523.728 707.141 525.055 708.348 526.624C709.555 528.193 710.52 529.883 711.607 531.694H675.518V531.573Z" fill="#42C93B"/>
<path d="M1176.17 510.451C1172.06 506.347 1167.11 502.968 1161.44 500.675C1155.77 498.261 1149.86 497.054 1143.46 497.054C1139.11 497.054 1135.01 497.536 1131.03 498.623C1127.04 499.709 1123.3 501.278 1119.92 503.209C1116.54 505.14 1113.4 507.554 1110.63 510.33C1107.85 513.106 1105.44 516.244 1103.39 519.624C1101.34 523.003 1099.89 526.745 1098.68 530.728C1097.59 534.711 1096.99 538.935 1096.99 543.16C1096.99 547.505 1097.59 551.608 1098.68 555.591C1099.77 559.574 1101.34 563.316 1103.39 566.696C1105.44 570.075 1107.73 573.213 1110.63 575.989C1113.4 578.765 1116.54 581.179 1119.92 583.231C1123.3 585.283 1127.04 586.731 1131.03 587.817C1135.01 588.904 1139.11 589.386 1143.46 589.386C1147.68 589.386 1151.79 588.904 1155.77 587.817C1159.75 586.731 1163.37 585.162 1166.75 583.231C1170.13 581.179 1173.27 578.886 1176.05 575.989C1178.82 573.213 1181.24 570.075 1183.29 566.696C1185.34 563.316 1186.79 559.574 1188 555.591C1189.08 551.608 1189.68 547.505 1189.68 543.16C1189.68 536.642 1188.48 530.607 1186.06 524.935C1183.65 519.503 1180.39 514.675 1176.17 510.451ZM1161.8 552.091C1160.84 554.747 1159.63 557.16 1157.82 559.092C1156.13 561.023 1153.96 562.592 1151.54 563.799C1149.13 565.006 1146.35 565.489 1143.22 565.489C1140.08 565.489 1137.18 564.885 1134.77 563.799C1132.23 562.592 1130.06 561.143 1128.37 559.092C1126.56 557.16 1125.23 554.747 1124.27 552.091C1123.3 549.436 1122.82 546.539 1122.82 543.401C1122.82 540.384 1123.3 537.487 1124.27 534.832C1125.23 532.056 1126.56 529.762 1128.37 527.59C1130.18 525.538 1132.23 523.848 1134.77 522.641C1137.3 521.434 1140.08 520.831 1143.22 520.831C1146.23 520.831 1149.01 521.434 1151.54 522.641C1153.96 523.848 1156.13 525.417 1157.82 527.59C1159.51 529.642 1160.84 532.056 1161.8 534.832C1162.77 537.608 1163.13 540.384 1163.13 543.401C1163.13 546.539 1162.77 549.436 1161.8 552.091Z" fill="#42C93B"/>
<path d="M1277.31 573.937L1269.47 561.988C1268.74 560.902 1268.02 560.178 1267.41 559.816C1266.81 559.454 1265.96 559.333 1265.24 559.333C1264.88 559.333 1264.4 559.333 1263.91 559.454C1263.31 559.574 1262.71 559.816 1261.98 560.299C1259.81 561.747 1257.64 562.954 1255.34 563.919C1253.05 564.885 1250.52 565.368 1247.86 565.368C1244.84 565.368 1242.19 564.764 1239.65 563.678C1237.12 562.471 1235.07 561.023 1233.26 558.971C1231.45 557.04 1230.12 554.626 1229.15 551.971C1228.19 549.315 1227.7 546.419 1227.7 543.28C1227.7 540.263 1228.19 537.366 1229.15 534.711C1230.12 531.935 1231.57 529.642 1233.26 527.469C1235.07 525.417 1237.12 523.728 1239.65 522.521C1242.19 521.314 1244.84 520.71 1247.86 520.71C1250.52 520.71 1253.05 521.193 1255.46 522.038C1257.88 522.883 1260.05 523.969 1262.1 525.417C1262.83 525.9 1263.55 526.262 1264.15 526.504C1264.76 526.745 1265.24 526.866 1265.72 526.866C1267.65 526.866 1269.22 525.659 1270.55 523.366L1276.83 512.744C1277.43 511.899 1277.67 510.934 1277.67 510.089C1277.67 508.882 1277.31 507.796 1276.71 507.072C1276.1 506.227 1275.26 505.502 1274.29 504.899L1274.53 505.14C1270.67 502.485 1266.69 500.433 1262.34 499.106C1258 497.778 1253.29 497.054 1248.1 497.054C1243.88 497.054 1239.77 497.536 1235.91 498.623C1232.05 499.709 1228.31 501.278 1224.93 503.209C1221.55 505.14 1218.41 507.554 1215.63 510.33C1212.86 513.106 1210.44 516.244 1208.39 519.624C1206.46 523.003 1204.89 526.745 1203.81 530.728C1202.72 534.711 1202.12 538.935 1202.12 543.16C1202.12 547.505 1202.72 551.608 1203.81 555.591C1204.89 559.574 1206.46 563.316 1208.39 566.696C1210.32 570.075 1212.74 573.213 1215.63 575.989C1218.41 578.765 1221.55 581.179 1224.93 583.231C1228.31 585.283 1231.93 586.731 1235.91 587.817C1239.89 588.904 1243.88 589.386 1248.1 589.386C1253.17 589.386 1258.12 588.542 1262.71 586.972C1267.29 585.403 1271.52 583.231 1275.38 580.576C1276.22 580.093 1276.95 579.489 1277.55 578.765C1278.28 578.041 1278.52 577.196 1278.52 576.11C1278.52 575.868 1278.4 575.506 1278.16 575.024C1277.79 574.782 1277.55 574.42 1277.31 573.937Z" fill="#42C93B"/>
<path d="M1073.21 471.949H1061.63C1057.4 471.949 1053.9 475.449 1053.9 479.674V580.335C1053.9 584.559 1057.4 588.059 1061.63 588.059H1073.21C1077.44 588.059 1080.94 584.559 1080.94 580.335V479.674C1080.94 475.449 1077.44 471.949 1073.21 471.949Z" fill="#42C93B"/>
<path d="M772.196 471.949H760.609C756.385 471.949 752.885 475.449 752.885 479.674V580.335C752.885 584.559 756.385 588.059 760.609 588.059H772.196C776.421 588.059 779.921 584.559 779.921 580.335V479.674C779.921 475.449 776.541 471.949 772.196 471.949Z" fill="#42C93B"/>
<path d="M1422.03 471.949H1410.44C1406.21 471.949 1402.71 475.449 1402.71 479.674V580.335C1402.71 584.559 1406.21 588.059 1410.44 588.059H1422.03C1426.25 588.059 1429.75 584.559 1429.75 580.335V479.674C1429.87 475.449 1426.37 471.949 1422.03 471.949Z" fill="#42C93B"/>
<path d="M955.172 497.175C944.43 497.175 935.016 502.123 928.619 509.607L926.688 503.33C925.722 500.554 924.153 498.502 921.498 498.502H909.79C907.135 498.502 904.962 500.675 904.962 503.33V580.335C904.962 584.559 908.462 588.059 912.687 588.059H924.274C928.498 588.059 931.998 584.559 931.998 580.335V537.849C931.998 529.159 938.999 522.159 947.689 522.159C956.379 522.159 963.379 529.159 963.379 537.849V581.3C963.379 585.042 966.397 588.059 970.138 588.059H983.173C986.915 588.059 989.932 585.042 989.932 581.3V534.591C990.053 515.521 977.863 497.175 955.172 497.175Z" fill="#42C93B"/>
<path d="M1377.49 498.502H1365.78C1363.13 498.502 1361.56 500.554 1360.59 503.33L1359.26 508.037C1356 505.141 1352.38 502.606 1348.28 500.796C1342.97 498.382 1337.3 497.175 1331.26 497.175C1327.16 497.175 1323.3 497.658 1319.55 498.744C1315.81 499.83 1312.31 501.399 1309.05 503.33C1305.79 505.261 1302.9 507.675 1300.24 510.451C1297.59 513.227 1295.29 516.366 1293.48 519.745C1291.55 523.125 1290.1 526.866 1289.14 530.849C1288.05 534.832 1287.57 539.056 1287.57 543.281C1287.57 547.626 1288.05 551.73 1289.14 555.713C1290.22 559.696 1291.67 563.437 1293.48 566.817C1295.41 570.196 1297.59 573.334 1300.24 576.11C1302.9 578.886 1305.79 581.3 1309.05 583.352C1312.31 585.404 1315.81 586.852 1319.55 587.938C1323.3 589.025 1327.28 589.508 1331.26 589.508C1335.37 589.508 1339.23 589.025 1342.85 587.938C1346.59 586.852 1350.09 585.283 1353.23 583.352C1355.4 582.024 1357.33 580.455 1359.26 578.766L1360.59 583.111C1361.56 585.887 1363.13 587.938 1365.78 587.938H1377.49C1380.14 587.938 1382.32 585.766 1382.32 583.111V522.762C1382.32 522.521 1382.32 503.089 1382.32 503.089C1382.32 500.675 1380.14 498.502 1377.49 498.502ZM1352.14 552.092C1351.18 554.747 1349.97 557.161 1348.16 559.092C1346.47 561.023 1344.3 562.592 1341.88 563.799C1339.47 565.006 1336.69 565.489 1333.55 565.489C1330.42 565.489 1327.52 564.885 1325.11 563.799C1322.57 562.592 1320.4 561.144 1318.71 559.092C1316.9 557.161 1315.57 554.747 1314.61 552.092C1313.64 549.436 1313.16 546.54 1313.16 543.402C1313.16 540.384 1313.64 537.487 1314.61 534.832C1315.57 532.056 1316.9 529.763 1318.71 527.59C1320.52 525.538 1322.57 523.849 1325.11 522.642C1327.64 521.435 1330.42 520.831 1333.55 520.831C1336.57 520.831 1339.35 521.435 1341.88 522.642C1344.3 523.849 1346.47 525.418 1348.16 527.59C1349.85 529.642 1351.18 532.056 1352.14 534.832C1353.11 537.608 1353.47 540.384 1353.47 543.402C1353.59 546.54 1353.11 549.436 1352.14 552.092Z" fill="#42C93B"/>
<path d="M598.152 497.175C598.152 497.175 580.53 496.088 568.823 512.382C563.029 503.451 553.494 497.175 540.218 497.175C529.476 497.175 520.062 502.123 513.665 509.606L511.734 503.33C510.768 500.554 509.199 498.502 506.544 498.502H494.957C492.301 498.502 490.129 500.675 490.129 503.33V580.334C490.129 584.559 493.629 588.059 497.853 588.059H509.44C513.665 588.059 517.165 584.559 517.165 580.334V537.849C517.165 529.159 524.165 522.159 532.855 522.159C541.546 522.159 548.546 529.159 548.546 537.849V581.3C548.546 585.042 551.563 588.059 555.305 588.059H568.34C572.082 588.059 575.099 585.042 575.099 581.3V537.849C575.099 529.159 582.1 522.159 590.79 522.159C599.48 522.159 606.48 529.159 606.48 537.849V581.3C606.48 585.042 609.498 588.059 613.239 588.059H626.274C630.016 588.059 633.033 585.042 633.033 581.3V534.591C633.033 515.521 620.843 497.175 598.152 497.175Z" fill="#42C93B"/>
<g clip-path="url(#clip1_474_9045)">
<path d="M874.869 510.645C870.693 506.49 865.767 503.223 860.138 500.843C854.508 498.462 848.503 497.295 842.076 497.295C837.713 497.295 833.538 497.856 829.597 498.929C825.609 500.003 821.903 501.543 818.431 503.503C814.96 505.464 811.864 507.844 809.049 510.645C806.234 513.445 803.841 516.526 801.824 519.933C799.807 523.34 798.259 527.028 797.133 531.042C796.054 535.009 795.491 539.163 795.491 543.504C795.491 547.845 796.054 551.952 797.133 555.92C798.259 559.887 799.807 563.574 801.824 567.028C803.841 570.436 806.234 573.563 809.049 576.363C811.676 578.977 814.631 581.264 817.869 583.178C817.869 583.178 834.335 593.727 840.528 607.449C841.091 608.709 842.874 608.709 843.437 607.449C849.629 593.727 866.096 583.178 866.096 583.178C869.286 581.264 872.242 579.024 874.916 576.363C877.73 573.563 880.123 570.482 882.14 567.028C884.158 563.621 885.706 559.887 886.832 555.92C887.958 551.952 888.521 547.798 888.521 543.504C888.521 536.969 887.301 530.902 884.861 525.301C882.422 519.7 879.044 514.799 874.869 510.645ZM864.407 553.306C863.375 556.386 861.827 559.14 859.809 561.427C857.745 563.761 855.259 565.628 852.397 566.935C849.488 568.289 846.204 568.989 842.639 568.989C838.98 568.989 835.649 568.289 832.693 566.935C829.738 565.581 827.204 563.761 825.14 561.427C823.076 559.14 821.481 556.386 820.355 553.306C819.276 550.272 818.713 546.958 818.713 543.457C818.713 540.097 819.276 536.829 820.355 533.749C821.434 530.668 823.029 527.868 825.093 525.487C827.157 523.06 829.691 521.147 832.646 519.746C838.511 516.946 846.533 516.899 852.444 519.746C855.306 521.147 857.839 523.06 859.856 525.534C861.874 527.914 863.375 530.715 864.407 533.796C865.439 536.829 865.955 540.097 865.955 543.457C866.002 546.958 865.486 550.225 864.407 553.306Z" fill="#42C93B"/>
<path d="M854.649 529.875C853.242 528.148 851.506 526.841 849.488 525.861C847.471 524.881 845.172 524.414 842.639 524.414C840.012 524.414 837.619 524.927 835.555 525.861C833.491 526.841 831.708 528.195 830.254 529.875C828.753 531.602 827.58 533.656 826.782 535.99C825.938 538.37 825.515 540.89 825.515 543.504C825.515 546.211 825.938 548.732 826.782 551.066C827.58 553.353 828.753 555.313 830.207 556.947C831.661 558.58 833.444 559.841 835.508 560.821C839.543 562.641 845.407 562.735 849.488 560.821C851.553 559.887 853.242 558.627 854.649 556.993C856.056 555.36 857.182 553.399 857.933 551.112C858.73 548.779 859.153 546.211 859.153 543.504C859.153 540.89 858.73 538.37 857.933 535.99C857.229 533.656 856.103 531.602 854.649 529.875Z" fill="#F3C90C"/>
</g>
</g>
<defs>
<clipPath id="clip0_474_9045">
<rect width="939.742" height="136.387" fill="white" transform="translate(490.129 471.949)"/>
</clipPath>
<clipPath id="clip1_474_9045">
<rect width="92.9362" height="111.041" fill="white" transform="translate(795.491 497.295)"/>
</clipPath>
</defs>
</svg>
